{"title":"Les.Femmes.Du.6eme.Etage.2011.DVDRip.XviD.AC3.HORiZON-ArtSubs","uid":6858088,"size":1675532672,"categoryP":"video","categoryS":"movies","magnet":"?xt=urn:btih:308dec7f3e245d6930c6175991374a8f140b2b9f&amp;dn=Les.Femmes.Du.6eme.Etage.2011.DVDRip.XviD.AC3.HORiZON-ArtSubs&amp;tr=udp%3A%2F%2Ftracker.openbittorrent.com%3A80&amp;tr=udp%3A%2F%2Fopen.demonii.com%3A1337&amp;tr=udp%3A%2F%2Ftracker.coppersurfer.tk%3A6969&amp;tr=udp%3A%2F%2Fexodus.desync.com%3A6969","seeders":9,"leechers":0,"uploader":"lletaif","files":3,"time":1322777970,"description":"Title: Les Femmes Du 6eme Etage (2010)\n\nDirector: Philippe Le Guay\n\nWriters: Philippe Le Guay, JÃƒÂ©rÃƒÂ´me Tonnerre\n\nStars: Fabrice Luchini, Sandrine Kiberlain and Natalia Verbeke\n\nPlot: Paris, in the early 1960s. Jean-Louis Joubert is a serious but uptight stockbroker, married to Suzanne, a starchy class-conscious woman and father of two arrogant teenage boys, currently in a boarding school. The affluent man lives a steady yet boring life. At least until, due to fortuitous circumstances, Maria, the charming new maid at the service of Jean-Louis' family, makes him discover the servants' quarter on the sixth floor of the luxury building he owns and lives in. There live a crowd of lively Spanish maids who will help Jean-Louis to open to a new civilization and a new approach of life. In their company - and more precisely in the company of beautiful Maria - Jean-Louis will gradually become another man, a better man. \n\n\nLanguage: French\n\n\nSUBTITLES: ENGLISH AND SPANISH\n\n\nRip informations:\n\nGeneral\nComplete name                    : Les.Femmes.Du.6eme.Etage.2011.DVDRip.XviD.AC3.HORiZON-ArtSubs\nFormat                           : AVI\nFormat/Info                      : Audio Video Interleave\nFile size                        : 1.56 GiB\nDuration                         : 1h 41mn\nOverall bit rate                 : 2 191 Kbps\nWriting application              : FairUse Wizard - http://fairusewizard.com\nWriting library                  : The best and REALLY easy backup tool\n\nVideo\nID                               : 0\nFormat                           : MPEG-4 Visual\nFormat profile                   : Advanced Simple@L5\nFormat settings, BVOP            : 1\nFormat settings, QPel            : No\nFormat settings, GMC             : No warppoints\nFormat settings, Matrix          : Default (MPEG)\nMuxing mode                      : Packed bitstream\nCodec ID                         : XVID\nCodec ID/Hint                    : XviD\nDuration                         : 1h 41mn\nBit rate                         : 1 733 Kbps\nWidth                            : 688 pixels\nHeight                           : 368 pixels\nDisplay aspect ratio             : 1.870\nFrame rate                       : 25.000 fps\nColor space                      : YUV\nChroma subsampling               : 4:2:0\nBit depth                        : 8 bits\nScan type                        : Progressive\nCompression mode                 : Lossy\nBits/(Pixel*Frame)               : 0.274\nStream size                      : 1.23 GiB (79%)\nWriting library                  : XviD 1.2.0.dev47 (UTC 2006-11-01)\n\nAudio\nID                               : 1\nFormat                           : AC-3\nFormat/Info                      : Audio Coding 3\nMode extension                   : CM (complete main)\nCodec ID                         : 2000\nDuration                         : 1h 41mn\nBit rate mode                    : Constant\nBit rate                         : 448 Kbps\nChannel(s)                       : 6 channels\nChannel positions                : Front: L C R, Side: L R, LFE\nSampling rate                    : 48.0 KHz\nBit depth                        : 16 bits\nCompression mode                 : Lossy\nStream size                      : 327 MiB (20%)\nAlignment                        : Split accross interleaves\nInterleave, duration             : 40 ms (1.00 video frame)\nInterleave, preload duration     : 500 ms\n\n ","torrent":{"xt":"urn:btih:308dec7f3e245d6930c6175991374a8f140b2b9f","amp;dn":"Les.Femmes.Du.6eme.Etage.2011.DVDRip.XviD.AC3.HORiZON-ArtSubs","amp;tr":["udp%3A%2F%2Ftracker.openbittorrent.com%3A80","udp%3A%2F%2Fopen.demonii.com%3A1337","udp%3A%2F%2Ftracker.coppersurfer.tk%3A6969","udp%3A%2F%2Fexodus.desync.com%3A6969"],"infoHash":"308dec7f3e245d6930c6175991374a8f140b2b9f","infoHashBuffer":{"type":"Buffer","data":[48,141,236,127,62,36,93,105,48,198,23,89,145,55,74,143,20,11,43,159]},"announce":[],"urlList":[]}}